<svg width="454" height="454" viewBox="0 0 454 454" fill="none" xmlns="http://www.w3.org/2000/svg">
<path d="M48.6429 0H405.357C418.254 0.0134132 430.619 5.14258 439.738 14.262C448.857 23.3814 453.987 35.7461 454 48.6429V405.357C453.987 418.254 448.857 430.619 439.738 439.738C430.619 448.857 418.254 453.987 405.357 454H48.6429C35.7461 453.987 23.3813 448.857 14.262 439.738C5.14255 430.619 0.0133972 418.254 0 405.357V48.6429C0.0133972 35.7461 5.14255 23.3814 14.262 14.262C23.3813 5.14258 35.7461 0.0134132 48.6429 0ZM65.5767 167.21L118.739 229.767C123.328 235.227 129.816 238.746 136.895 239.615C143.975 240.483 151.121 238.637 156.893 234.448C170.068 225.034 196.689 209.225 227 209.225C257.311 209.225 283.932 225.034 297.107 234.448C302.88 238.635 310.026 240.48 317.104 239.611C324.183 238.742 330.67 235.225 335.261 229.767L388.423 167.21C393.474 161.246 396.21 153.664 396.132 145.849C396.053 138.035 393.166 130.509 387.998 124.647C368.814 103.052 314.729 52.8282 227 52.8282C139.271 52.8282 85.1858 103.082 66.0023 124.647C60.8337 130.509 57.9466 138.035 57.8685 145.849C57.7903 153.664 60.5263 161.246 65.5767 167.21Z" fill="#221C46"/>
</svg>
