<svg width="646" height="150" viewBox="0 0 646 150" fill="none" xmlns="http://www.w3.org/2000/svg">
<path d="M232.869 125.58C248.539 125.58 259.322 133.837 260.333 147.15L250.224 149.509C250.055 140.915 242.473 135.185 231.184 135.185H197.317C184.006 135.185 175.076 127.602 175.076 116.312C175.076 108.728 178.951 101.651 185.186 98.2805C177.772 91.5399 173.223 81.9345 173.223 70.981C173.223 49.9165 189.735 33.9076 211.807 33.9076C220.232 33.9076 227.983 36.2668 234.217 40.4797C235.396 31.5484 242.305 25.8188 252.246 25.8188H258.648V34.9187H252.751C245.843 34.9187 241.125 39.3001 241.125 46.0407V46.5462C246.854 52.9498 250.224 61.3756 250.224 70.981C250.224 92.0454 233.711 107.886 211.807 107.886C204.225 107.886 197.149 106.032 191.42 102.662C187.208 105.021 184.849 109.403 184.849 113.952C184.849 121.03 190.577 125.58 199.002 125.58H232.869ZM183.332 70.981C183.332 86.6529 195.632 98.6175 211.807 98.6175C227.983 98.6175 240.114 86.6529 240.114 70.981C240.114 55.1405 227.983 43.1759 211.807 43.1759C195.464 43.1759 183.332 55.1405 183.332 70.981Z" fill="#221C46"/>
<path d="M395 35.9298H405.615L373.433 121.873H362.986L335.859 47.3888L308.563 121.873H298.116L265.934 35.9298H276.886L303.677 110.414L330.804 35.9298H341.082L368.209 110.414L395 35.9298Z" fill="#221C46"/>
<path d="M493.345 35.9298H503.118V121.873H493.345V101.988C486.269 115.301 472.789 123.895 456.277 123.895C431.34 123.895 412.637 104.516 412.637 78.9012C412.637 53.2869 431.34 33.9076 456.277 33.9076C472.789 33.9076 486.269 42.5019 493.345 55.8146V35.9298ZM457.962 114.458C478.181 114.458 493.345 99.1231 493.345 78.9012C493.345 58.6794 478.181 43.3444 457.962 43.3444C437.911 43.3444 422.747 58.6794 422.747 78.9012C422.747 99.1231 437.911 114.458 457.962 114.458Z" fill="#221C46"/>
<path d="M529.754 121.873V0.541504H539.527V121.873H529.754Z" fill="#221C46"/>
<path d="M609.417 33.9076C630.984 33.9076 645.474 48.0629 645.474 69.8014V121.873H635.702V72.6661C635.702 54.972 624.076 43.3444 606.553 43.3444C588.355 43.3444 576.056 55.1405 576.056 73.0032V121.873H566.283V35.9298H576.056V52.1073C582.458 40.4797 594.253 33.9076 609.417 33.9076Z" fill="#221C46"/>
<path d="M15.7182 0H130.981C135.149 0.00433414 139.144 1.6617 142.091 4.6084C145.038 7.55511 146.695 11.5505 146.699 15.7177V130.981C146.695 135.148 145.038 139.144 142.091 142.09C139.144 145.037 135.149 146.694 130.981 146.699H15.7182C11.5509 146.694 7.55554 145.037 4.60884 142.09C1.66214 139.144 0.004776 135.148 0.000442505 130.981V15.7177C0.004776 11.5505 1.66214 7.55511 4.60884 4.6084C7.55554 1.6617 11.5509 0.00433414 15.7182 0ZM21.1899 54.0297L38.3681 74.2433C39.8509 76.0078 41.9471 77.1448 44.2347 77.4255C46.5223 77.7062 48.8313 77.1097 50.6967 75.7562C54.9535 72.7141 63.5557 67.6059 73.3498 67.6059C83.1439 67.6059 91.7461 72.7141 96.003 75.7562C97.8687 77.109 100.177 77.705 102.465 77.4243C104.752 77.1437 106.848 76.0071 108.332 74.2433L125.51 54.0297C127.142 52.1026 128.026 49.6527 128 47.1276C127.975 44.6025 127.042 42.1708 125.372 40.2767C119.174 33.2987 101.697 17.0701 73.3498 17.0701C45.0023 17.0701 27.5261 33.3085 21.3274 40.2767C19.6573 42.1708 18.7245 44.6025 18.6992 47.1276C18.674 49.6527 19.558 52.1026 21.1899 54.0297Z" fill="#221C46"/>
</svg>
